<?xml version="1.0" standalone="no"?><!DOCTYPE svg PUBLIC "-//W3C//DTD SVG 1.1//EN" "http://www.w3.org/Graphics/SVG/1.1/DTD/svg11.dtd"><svg t="1551528248653" class="icon" style="" viewBox="0 0 1024 1024" version="1.1" xmlns="http://www.w3.org/2000/svg" p-id="4452" xmlns:xlink="http://www.w3.org/1999/xlink" width="32" height="32"><defs><style type="text/css"></style></defs><path d="M837.818182 116.363636c38.493091 0 69.818182 31.325091 69.818182 69.818182s-31.325091 69.818182-69.818182 69.818182-69.818182-31.325091-69.818182-69.818182 31.325091-69.818182 69.818182-69.818182M232.727273 628.363636c-64.162909 0-116.363636-52.200727-116.363637-116.363636s52.200727-116.363636 116.363637-116.363636 116.363636 52.200727 116.363636 116.363636-52.200727 116.363636-116.363636 116.363636m605.090909 139.636364c38.493091 0 69.818182 31.325091 69.818182 69.818182s-31.325091 69.818182-69.818182 69.818182-69.818182-31.325091-69.818182-69.818182 31.325091-69.818182 69.818182-69.818182m0-442.181818a139.636364 139.636364 0 0 0 0-279.272727 139.636364 139.636364 0 0 0-139.636364 139.636363c0 13.754182 2.071273 26.996364 5.771637 39.540364l-330.123637 165.050182A185.483636 185.483636 0 0 0 232.727273 325.818182a186.181818 186.181818 0 0 0 0 372.363636c56.087273 0 106.24-24.901818 140.381091-64.139636l328.378181 173.847273A139.240727 139.240727 0 0 0 698.181818 837.818182a139.636364 139.636364 0 0 0 279.272727 0 139.636364 139.636364 0 0 0-139.636363-139.636364 139.124364 139.124364 0 0 0-104.680727 47.453091l-324.887273-172.008727A185.716364 185.716364 0 0 0 418.909091 512a185.716364 185.716364 0 0 0-10.263273-60.555636l331.357091-165.678546A139.170909 139.170909 0 0 0 837.818182 325.818182" fill="#8a8a8a" p-id="4453"></path></svg>